<?xml version="1.0" standalone="no"?>
<!DOCTYPE svg PUBLIC "-//W3C//DTD SVG 20010904//EN"
 "http://www.w3.org/TR/2001/REC-SVG-20010904/DTD/svg10.dtd">
<svg version="1.0" xmlns="http://www.w3.org/2000/svg"
 width="700.000000pt" height="700.000000pt" viewBox="0 0 700.000000 700.000000"
 preserveAspectRatio="xMidYMid meet">
<metadata>
Created by potrace 1.11, written by Peter Selinger 2001-2013
</metadata>
<g transform="translate(0.000000,700.000000) scale(0.100000,-0.100000)"
fill="#000000" stroke="none">
<path d="M3299 6456 c-2 -2 -42 -7 -89 -10 -98 -8 -122 -11 -250 -32 -80 -13
-186 -36 -299 -66 -102 -26 -335 -104 -386 -128 -11 -5 -49 -21 -85 -36 -108
-44 -295 -140 -416 -212 l-71 -43 -64 40 c-251 152 -548 248 -824 267 -49 3
-110 7 -135 9 -69 5 -100 -16 -158 -104 -292 -443 -386 -984 -258 -1488 14
-54 33 -122 44 -151 l18 -53 -36 -72 c-129 -261 -235 -594 -265 -837 -4 -30
-11 -82 -15 -115 -8 -65 -5 -388 4 -445 3 -19 8 -51 11 -70 23 -152 66 -310
121 -452 37 -97 119 -264 160 -330 13 -21 24 -40 24 -42 0 -11 119 -178 188
-266 92 -115 296 -322 412 -417 497 -408 1118 -681 1820 -802 63 -10 144 -22
180 -26 36 -4 73 -9 82 -10 10 -2 61 -7 115 -10 54 -4 109 -9 123 -11 32 -5
449 -4 515 1 100 8 191 16 235 21 64 7 264 35 270 39 3 2 27 6 53 9 108 15
420 96 602 157 234 79 567 236 770 364 749 470 1198 1113 1290 1845 15 121 13
422 -4 520 -6 36 -13 81 -15 100 -14 109 -76 337 -132 489 -41 108 -44 116
-112 262 -36 78 -47 111 -40 123 31 56 86 302 103 461 7 58 7 304 1 345 -3 19
-8 55 -11 80 -3 25 -7 52 -9 60 -1 8 -6 33 -11 55 -39 206 -127 424 -251 625
-86 140 -97 148 -199 144 -234 -9 -443 -51 -650 -130 -94 -37 -274 -128 -324
-165 l-28 -21 -99 58 c-94 54 -347 184 -359 184 -3 0 -24 9 -48 20 -121 55
-339 129 -507 169 -204 50 -239 57 -390 76 -25 3 -63 8 -85 11 -50 7 -510 15
-516 10z"/>
</g>
</svg>
